<svg id="Layer_1" data-name="Layer 1" xmlns="http://www.w3.org/2000/svg" viewBox="0 0 406.22 171.13"><defs><style>.cls-1{fill:#00263e;}</style></defs><title>Gojee Logo Blue</title><path class="cls-1" d="M189.83,0h23.3V88.64c0,23.3-13.76,29.86-27.83,29.86-18.92,0-26.74-12-26.74-23.92a11.18,11.18,0,0,1,.94-4.38H178a15.76,15.76,0,0,0-.16,2.66c0,3.76,1.57,7,6.1,7s5.94-4.07,5.94-7.51Z"/><path class="cls-1" d="M246.28,33.14h40.18c-1.56-10.32-12-14.22-19.85-14.22-7.51,0-17.51,3.44-20.33,14.22M306,67.85c-11.41,12.5-26.57,15.79-37.36,15.79-29.71,0-46-18.61-46-41.43C222.68,18.6,241.12,0,266.92,0c22.2,0,43.46,15.32,43.46,47.21H245.81c.47,10,9.7,17.35,24.55,17.35,8.29,0,16.57-4.22,22.2-9.53Z"/><path class="cls-1" d="M342.12,33.14H382.3c-1.56-10.32-12-14.22-19.85-14.22-7.51,0-17.51,3.44-20.33,14.22m59.72,34.71c-11.41,12.5-26.57,15.79-37.36,15.79-29.71,0-46-18.61-46-41.43C318.52,18.6,337,0,362.76,0c22.2,0,43.46,15.32,43.46,47.21H341.65c.47,10,9.69,17.35,24.55,17.35,8.28,0,16.57-4.22,22.2-9.53Z"/><path class="cls-1" d="M136.06,63.26A21.3,21.3,0,1,1,157.35,42a21.3,21.3,0,0,1-21.29,21.3m0-63.26a42,42,0,1,0,42,42,42,42,0,0,0-42-42"/><path class="cls-1" d="M21.81,42A21.3,21.3,0,1,1,43.1,63.26,21.29,21.29,0,0,1,21.81,42m2.71,94.62c0-7.53,1.68-12.82,6.14-16.45H54.34c13.38,0,17,3.35,17,13.66,0,10.87-4.46,18.67-24.8,18.67-14.77,0-22-4.73-22-15.88M21.18,90c0-3.35,2.23-6.41,6.41-8.92.45.12,1,.22,1.43.33a42,42,0,1,0-17.84-12.3,26.39,26.39,0,0,0,3.59,4.45C4.74,79.17,0,87.25,0,95.61A22.87,22.87,0,0,0,12,116c-6.13,6.14-9.47,14.78-9.47,24.25,0,18.12,12.54,30.93,42.92,30.93,30.65,0,48.77-14.49,48.77-41.24,0-20.07-10-32.33-38.18-32.33H33.72c-9.2,0-12.54-2.79-12.54-7.52"/></svg>